# xmcd
# 
# Track frame offsets:
#     150
#     13362
#     25002
#     44782
#     57190
#     76422
#     94760
#     112012
#     129972
#     152045
#     166332
#     182742
#     201337
#     221402
#     240532
#     264345
#     286425
#     306745
# 
# Disc length: 4325
# 
# Revision: 1
# Processed by: cddbd v1.5.2PL0 Copyright (c) Steve Scherf et al.
# Submitted via: BonkEnc v1.0.5
# 
DISCID=0410e312
DTITLE=土屋昌巳 - 土屋昌巳 ベリーベスト
DYEAR=0
DGENRE=Rock
TTITLE0=もっとリアルに
TTITLE1=ブレイクアウト・ジェネレーション（狂育世代）
TTITLE2=ミステリアス・ナイト
TTITLE3=ラジオ・ファンタジー
TTITLE4=ふたりのシーズン
TTITLE5=タオ・タオ
TTITLE6=すみれSeptember Love
TTITLE7=アイ・ニード・ユー
TTITLE8=アフリカン・ナイツ
TTITLE9=ドリーム・オブ・ザ・ジプシーズ
TTITLE10=ムーンライト・マジック
TTITLE11=スターライト・シャワー
TTITLE12=東京バレエ
TTITLE13=さよならフォリナー
TTITLE14=一日千夜 (ONE DAY A THOUSAND NIGHTS)
TTITLE15=冬のバラ
TTITLE16=レディー・ロキシー
TTITLE17=すみれSeptember Love (LIVE)
EXTD=
EXTT0=
EXTT1=
EXTT2=
EXTT3=
EXTT4=
EXTT5=
EXTT6=
EXTT7=
EXTT8=
EXTT9=
EXTT10=
EXTT11=
EXTT12=
EXTT13=
EXTT14=
EXTT15=
EXTT16=
EXTT17=
PLAYORDER=
